<svg version="1.1" id="Layer_1" xmlns="http://www.w3.org/2000/svg" xmlns:xlink="http://www.w3.org/1999/xlink" x="0px" y="0px" width="100%" viewBox="0 0 1024 1024" enable-background="new 0 0 1024 1024" xml:space="preserve">

<path fill="#7839ED" opacity="1.000000" stroke="none" d="
M124.875870,432.951874 
	C126.587967,425.871857 128.300079,418.791809 130.365967,411.116760 
	C132.952682,403.763824 135.190384,397.007507 137.417786,390.247803 
	C154.743454,337.668091 181.850769,290.592560 218.542633,249.284195 
	C240.350784,224.732193 264.829559,202.865204 292.231750,184.548462 
	C323.693115,163.518402 357.384613,147.200348 393.587494,135.832840 
	C430.724762,124.171936 468.693054,118.494972 507.473816,118.114616 
	C521.075562,117.981209 534.690063,119.341400 548.301514,119.957863 
	C570.177124,120.948601 591.540161,125.300797 612.674255,130.534775 
	C646.457886,138.901459 678.454285,151.993896 708.866699,168.932190 
	C735.898499,183.987595 760.759399,202.029343 782.975891,223.572449 
	C792.768799,233.068558 802.572998,242.663864 811.329346,253.089798 
	C822.114990,265.931915 832.331665,279.329529 841.858398,293.132965 
	C855.880005,313.449219 867.132263,335.384644 877.168884,358.329254 
	C884.034912,379.725037 891.220337,400.656097 897.373962,421.886200 
	C904.352966,445.963898 906.591492,470.904236 907.777954,495.807129 
	C908.878357,518.904968 908.209839,542.057983 905.046204,565.482422 
	C904.609131,569.541199 904.351501,573.195374 903.749023,576.791870 
	C895.247925,627.537292 878.609192,675.227295 851.163330,719.029480 
	C839.211121,738.104614 826.237549,756.324768 811.386902,773.230408 
	C810.460815,774.284729 810.349426,776.054688 809.858887,777.491699 
	C809.858887,777.491699 809.827637,777.735352 809.358521,777.695557 
	C807.694031,778.490601 806.380005,779.197388 805.321228,780.179504 
	C791.060425,793.407776 777.234558,807.138062 762.508667,819.824280 
	C739.694824,839.478394 714.036926,855.064941 687.056885,868.205933 
	C660.385986,881.196350 632.564087,891.188965 603.506958,897.869385 
	C578.932373,903.519226 554.127808,906.880554 529.030151,907.810120 
	C514.429260,908.350891 499.714172,908.026367 485.152802,906.837646 
	C468.129669,905.447876 451.016388,903.694519 434.298828,900.327942 
	C396.573425,892.730774 360.739563,879.607788 326.674316,861.469788 
	C280.517548,836.893616 241.237045,804.104553 207.662445,764.220093 
	C176.535065,727.242737 153.465347,685.757202 137.830124,639.671753 
	C136.769028,636.310242 135.875076,633.282959 134.929245,630.272034 
	C124.005516,595.496948 118.792824,559.800476 118.114914,523.436096 
	C117.907845,512.328735 118.263023,501.171173 119.108376,490.093689 
	C120.217575,475.558838 122.079384,461.081757 123.590797,446.577057 
	C124.063568,442.039948 124.449944,437.493866 124.875870,432.951874 
M602.920349,542.012146 
	C602.920349,542.012146 602.957336,542.243225 602.655029,541.784180 
	C602.394043,541.528992 602.133118,541.273804 601.956360,541.044800 
	C601.956360,541.044800 601.927551,541.128113 601.919678,540.419495 
	C601.236816,539.635254 600.553894,538.851013 599.942566,538.072144 
	C599.942566,538.072144 599.920654,538.140503 599.908081,537.403809 
	C599.178589,536.576050 598.449097,535.748230 597.170288,534.582214 
	C555.756226,474.232025 514.455811,413.803131 470.011566,355.603180 
	C453.408997,333.862030 437.029602,311.950439 419.737610,289.738892 
	C418.112305,289.499084 416.487366,289.052612 414.861664,289.050079 
	C384.616882,289.002808 354.371948,288.986115 324.127289,289.062134 
	C322.434448,289.066406 320.743805,289.927155 319.134766,290.741821 
	C319.134766,290.741821 318.926758,291.038239 318.441772,291.702637 
	C318.294281,294.183258 318.018097,296.663849 318.017700,299.144501 
	C317.994598,444.438446 317.994324,589.732422 318.190491,735.765076 
	C319.709656,736.503967 321.226105,737.880920 322.748413,737.887329 
	C352.863281,738.014832 382.979095,738.031250 413.093445,737.853577 
	C414.719238,737.843994 416.333832,735.936279 417.983795,734.975586 
	C417.983795,734.975586 417.916351,734.956116 418.422058,734.850342 
	C418.318390,734.235352 418.214691,733.620300 417.970062,732.195557 
	C418.012451,720.123962 418.054840,708.052429 418.286865,695.763062 
	C418.421631,695.481873 418.358002,695.233765 417.951874,694.122131 
	C418.006989,691.400452 418.062134,688.678833 418.564606,685.270325 
	C418.702698,684.622986 418.961456,683.975708 418.961578,683.328369 
	C418.969025,648.844788 418.972504,614.361145 418.872284,579.877808 
	C418.868561,578.603088 417.830353,577.331360 417.066223,575.134033 
	C417.089935,557.069336 417.113647,539.004700 417.550812,520.240112 
	C417.682495,518.257629 417.925781,516.275269 417.928864,514.292603 
	C417.965668,490.493927 417.931152,466.695068 418.042480,442.896851 
	C418.051819,440.900665 418.979126,438.908722 420.039764,437.217438 
	C424.671661,443.097870 429.658356,448.734985 433.882202,454.895172 
	C496.992828,546.938232 560.000427,639.052002 623.053772,731.134338 
	C624.248779,732.879456 625.704895,734.445923 627.723206,736.549805 
	C637.532715,736.664551 647.342285,736.825378 657.151733,736.819153 
	C658.085510,736.818604 659.018555,735.772949 660.712463,735.015076 
	C661.491943,735.061951 662.271423,735.108887 663.273865,735.290588 
	C663.273865,735.290588 663.623718,735.339172 663.623718,735.339172 
	C663.623718,735.339172 663.954895,735.142639 664.828369,734.968811 
	C666.900696,735.020203 668.972961,735.071655 671.737488,735.559082 
	C682.175781,735.695374 692.613953,735.874573 703.052551,735.898193 
	C704.041626,735.900391 705.032959,734.927063 705.948303,733.606384 
	C706.008850,731.717285 706.069397,729.828247 706.567200,727.250732 
	C706.706787,725.270447 706.966553,723.290283 706.968384,721.309875 
	C707.012878,673.199829 707.029968,625.089844 707.236511,576.765076 
	C707.354492,576.478455 707.291382,576.229431 707.009460,575.079041 
	C707.001282,555.720947 706.993103,536.362915 707.445496,516.316223 
	C707.630249,514.514160 708.023315,512.705200 707.963379,510.911346 
	C707.719543,503.620209 707.099182,496.335266 707.050720,489.045166 
	C706.917603,469.047028 706.906555,449.046753 707.047668,429.048706 
	C707.108459,420.427917 707.861755,411.812653 707.950562,403.191254 
	C708.106812,388.018494 707.993713,372.842987 707.994080,357.668610 
	C707.994568,336.904785 708.080750,316.140076 707.868835,295.378418 
	C707.846924,293.236176 706.049866,291.112030 704.124023,288.981903 
	C673.602539,288.989166 643.081055,288.970276 612.559814,289.058197 
	C610.351807,289.064545 608.146057,289.848358 606.109070,290.033234 
	C606.109070,290.033234 606.345154,290.204895 605.559143,290.406342 
	C605.029968,292.350983 604.049744,294.293549 604.040710,296.240570 
	C603.940491,317.885040 603.967590,339.530212 604.039124,361.174988 
	C604.045532,363.113922 604.602295,365.051025 604.954895,367.927490 
	C604.988770,394.598785 605.022644,421.270081 605.016968,448.885315 
	C605.019653,466.174591 604.906311,483.464905 605.063599,500.752777 
	C605.179810,513.529785 605.732666,526.302856 605.845215,539.079895 
	C605.858093,540.538574 604.284485,542.011230 603.565247,543.204712 
	C603.565247,543.204712 603.837402,543.324829 603.538879,542.832153 
	C603.255859,542.571960 602.972778,542.311768 602.920349,542.012146 
z" data-index="1"></path>
<path fill="#9846FE" opacity="1.000000" stroke="none" d="
M877.032593,357.996613 
	C867.132263,335.384644 855.880005,313.449219 841.858398,293.132965 
	C832.331665,279.329529 822.114990,265.931915 811.329346,253.089798 
	C802.572998,242.663864 792.768799,233.068558 782.975891,223.572449 
	C760.759399,202.029343 735.898499,183.987595 708.866699,168.932190 
	C678.454285,151.993896 646.457886,138.901459 612.674255,130.534775 
	C591.540161,125.300797 570.177124,120.948601 548.301514,119.957863 
	C534.690063,119.341400 521.075562,117.981209 507.473816,118.114616 
	C468.693054,118.494972 430.724762,124.171936 393.587494,135.832840 
	C357.384613,147.200348 323.693115,163.518402 292.231750,184.548462 
	C264.829559,202.865204 240.350784,224.732193 218.542633,249.284195 
	C181.850769,290.592560 154.743454,337.668091 137.417786,390.247803 
	C135.190384,397.007507 132.952682,403.763824 130.443665,410.729492 
	C131.719162,404.168274 132.594574,397.152466 134.957214,390.679504 
	C140.597198,375.227570 146.369354,359.772766 153.173737,344.812927 
	C158.788727,332.468018 165.869812,320.780731 172.480621,308.901917 
	C175.745331,303.035645 179.130203,297.196045 182.966019,291.696838 
	C189.277359,282.648712 195.839706,273.763397 202.595901,265.041534 
	C208.642807,257.235382 214.740326,249.412598 221.464279,242.202148 
	C228.521347,234.634460 236.066376,227.457611 243.903885,220.696182 
	C257.589569,208.889572 271.442322,197.250732 285.668762,186.108124 
	C292.498901,180.758530 300.196686,176.448074 307.761841,172.122284 
	C318.259857,166.119476 328.810822,160.147614 339.691345,154.891693 
	C352.170105,148.863739 364.778534,142.921448 377.799225,138.247192 
	C392.171661,133.087662 406.895264,128.588501 421.797943,125.312004 
	C437.177094,121.930771 452.884918,119.472694 468.577148,118.230705 
	C488.679565,116.639671 508.926697,115.854012 529.080017,116.264275 
	C544.232239,116.572716 559.373535,119.025436 574.447144,121.061340 
	C586.000244,122.621750 597.551086,124.543404 608.899414,127.180420 
	C620.669312,129.915375 632.281799,133.431534 643.796204,137.126205 
	C651.883301,139.721130 659.888916,142.762939 667.581482,146.353699 
	C683.171631,153.630920 698.873657,160.792648 713.866150,169.186890 
	C726.118530,176.046951 737.478577,184.524124 749.093018,192.490219 
	C754.766052,196.381180 760.179443,200.662125 765.593262,204.915573 
	C769.488770,207.976074 773.449280,211.025848 776.930725,214.527847 
	C787.859802,225.521408 798.988831,236.360748 809.261475,247.950195 
	C820.061523,260.134735 830.399231,272.791779 840.104187,285.862244 
	C846.579102,294.582550 851.860596,304.237488 857.194397,313.744476 
	C863.887329,325.674042 870.141663,337.851868 876.451172,349.992310 
	C877.618958,352.239471 878.150635,354.817261 878.606323,357.621094 
	C877.835327,357.998688 877.433960,357.997650 877.032593,357.996613 
z" data-index="2"></path>
<path fill="#9846FE" opacity="1.000000" stroke="none" d="
M137.973175,640.013672 
	C153.465347,685.757202 176.535065,727.242737 207.662445,764.220093 
	C241.237045,804.104553 280.517548,836.893616 326.674316,861.469788 
	C360.739563,879.607788 396.573425,892.730774 434.298828,900.327942 
	C451.016388,903.694519 468.129669,905.447876 485.152802,906.837646 
	C499.714172,908.026367 514.429260,908.350891 529.030151,907.810120 
	C554.127808,906.880554 578.932373,903.519226 603.506958,897.869385 
	C632.564087,891.188965 660.385986,881.196350 687.056885,868.205933 
	C714.036926,855.064941 739.694824,839.478394 762.508667,819.824280 
	C777.234558,807.138062 791.060425,793.407776 805.321228,780.179504 
	C806.380005,779.197388 807.694031,778.490601 809.238403,777.721191 
	C805.018127,782.870300 800.601685,788.102661 795.841553,793.000854 
	C789.560669,799.463928 783.259583,805.948120 776.505615,811.899353 
	C769.663879,817.927917 762.333923,823.415161 755.086853,828.968506 
	C737.804810,842.211365 719.484314,853.925171 700.247437,864.044006 
	C688.164246,870.399719 675.455688,875.598450 662.885132,880.983704 
	C655.091370,884.322510 647.123596,887.322510 639.064209,889.955322 
	C630.813843,892.650452 622.371521,894.767700 613.985352,897.034912 
	C605.577393,899.307983 597.216492,901.868164 588.686218,903.546448 
	C578.945801,905.462891 569.080933,906.984619 559.197876,907.878296 
	C546.720215,909.006775 534.173096,909.786865 521.649536,909.883057 
	C505.033051,910.010742 488.240967,910.693420 471.833923,908.650940 
	C451.960907,906.177063 431.895111,903.833008 412.673920,897.362793 
	C397.698303,892.321716 382.243652,888.564941 367.580627,882.772339 
	C352.378784,876.767029 337.632721,869.457581 323.138763,861.857605 
	C311.128540,855.559875 299.433289,848.512390 288.217590,840.886597 
	C274.420166,831.505432 260.841400,821.755432 248.918457,809.884521 
	C238.748505,799.758789 227.716782,790.478943 217.814346,780.110535 
	C210.256744,772.197388 203.668732,763.319519 197.015121,754.591980 
	C189.486893,744.717285 181.824631,734.872681 175.221130,724.385071 
	C168.510101,713.726624 162.764465,702.428955 157.070862,691.171082 
	C152.339813,681.816467 148.114182,672.191406 144.013290,662.538025 
	C141.123657,655.735962 138.818024,648.685852 136.430679,641.238770 
	C137.064194,640.492004 137.518692,640.252808 137.973175,640.013672 
z" data-index="3"></path>
<path fill="#9846FE" opacity="1.000000" stroke="none" d="
M810.119385,777.287842 
	C810.349426,776.054688 810.460815,774.284729 811.386902,773.230408 
	C826.237549,756.324768 839.211121,738.104614 851.163330,719.029480 
	C878.609192,675.227295 895.247925,627.537292 903.749023,576.791870 
	C904.351501,573.195374 904.609131,569.541199 905.238037,565.701965 
	C905.651794,566.035767 905.854553,566.581482 906.057312,567.127136 
	C906.669067,578.045105 904.265320,588.593201 901.826599,599.083740 
	C899.084167,610.880554 896.285095,622.694824 892.737976,634.264587 
	C889.805237,643.830444 886.073669,653.191711 882.110657,662.391541 
	C876.509766,675.393921 870.806152,688.389221 864.321045,700.961792 
	C859.204041,710.882263 853.214905,720.413513 846.942383,729.662659 
	C838.203613,742.548462 828.959167,755.099182 819.665100,767.595459 
	C817.048279,771.114014 813.500610,773.940247 810.119385,777.287842 
z" data-index="4"></path>
<path fill="#9544FD" opacity="1.000000" stroke="none" d="
M137.830124,639.671753 
	C137.518692,640.252808 137.064194,640.492004 136.383759,640.854248 
	C133.122726,630.965271 129.519104,621.083679 127.185692,610.910645 
	C123.677109,595.614197 120.911331,580.140076 118.144997,564.684998 
	C117.251839,559.695129 117.169350,554.532654 117.030098,549.440552 
	C116.608521,534.024170 115.689461,518.582520 116.185379,503.190094 
	C116.749535,485.679718 116.494873,468.027496 120.910515,450.807281 
	C122.382698,445.066071 123.123703,439.137360 124.537415,433.123108 
	C124.449944,437.493866 124.063568,442.039948 123.590797,446.577057 
	C122.079384,461.081757 120.217575,475.558838 119.108376,490.093689 
	C118.263023,501.171173 117.907845,512.328735 118.114914,523.436096 
	C118.792824,559.800476 124.005516,595.496948 134.929245,630.272034 
	C135.875076,633.282959 136.769028,636.310242 137.830124,639.671753 
z" data-index="5"></path>
<path fill="#9544FD" opacity="1.000000" stroke="none" d="
M906.407349,566.892700 
	C905.854553,566.581482 905.651794,566.035767 905.257202,565.270630 
	C908.209839,542.057983 908.878357,518.904968 907.777954,495.807129 
	C906.591492,470.904236 904.352966,445.963898 897.373962,421.886200 
	C891.220337,400.656097 884.034912,379.725037 877.168884,358.329254 
	C877.433960,357.997650 877.835327,357.998688 878.537964,357.999390 
	C883.212402,369.069458 888.222107,379.939575 891.785645,391.264740 
	C895.611023,403.422302 898.259949,415.966187 901.075317,428.419922 
	C903.111389,437.426727 904.676819,446.544800 906.270020,455.645142 
	C907.337097,461.740356 908.516418,467.865845 908.881897,474.023071 
	C909.549377,485.265137 909.768250,496.538879 909.952393,507.803040 
	C910.113525,517.657837 910.383179,527.540283 909.844604,537.368835 
	C909.307983,547.158936 907.825256,556.897278 906.407349,566.892700 
z" data-index="6"></path>
<path fill="#FFFFFF" opacity="1.000000" stroke="none" d="
M663.050903,735.155823 
	C662.271423,735.108887 661.491943,735.061951 659.870789,735.062988 
	C648.365784,735.439270 637.702454,735.767517 627.039124,736.095764 
	C625.704895,734.445923 624.248779,732.879456 623.053772,731.134338 
	C560.000427,639.052002 496.992828,546.938232 433.882202,454.895172 
	C429.658356,448.734985 424.671661,443.097870 419.552490,436.759674 
	C418.584839,435.697968 418.104462,435.094025 417.137329,433.878113 
	C417.137329,463.368195 417.137329,492.154114 417.137329,520.940002 
	C417.113647,539.004700 417.089935,557.069336 417.118011,576.058411 
	C417.485626,613.307556 417.801453,649.632385 418.117279,685.957153 
	C418.062134,688.678833 418.006989,691.400452 417.980408,694.811035 
	C418.008911,695.499939 418.097229,695.980835 418.097229,695.980835 
	C418.054840,708.052429 418.012451,720.123962 417.986755,732.923279 
	C417.974426,734.086060 417.945374,734.521057 417.916351,734.956116 
	C417.916351,734.956116 417.983795,734.975586 417.506073,734.999939 
	C389.089752,735.202820 361.151245,735.411072 333.212402,735.531128 
	C328.452209,735.551575 323.690399,735.194214 318.959778,734.542847 
	C318.993744,656.322083 319.008057,578.569824 318.997559,500.817566 
	C318.988098,430.891113 318.951416,360.964691 318.926758,291.038239 
	C318.926758,291.038239 319.134766,290.741821 319.548584,290.459290 
	C349.385529,290.303223 378.808624,290.448700 408.231903,290.534210 
	C412.336975,290.546143 416.442932,290.263092 420.548462,290.116577 
	C437.029602,311.950439 453.408997,333.862030 470.011566,355.603180 
	C514.455811,413.803131 555.756226,474.232025 597.561890,535.061646 
	C598.609253,536.407593 599.264954,537.274048 599.920654,538.140503 
	C599.920654,538.140503 599.942566,538.072144 599.990845,538.371216 
	C600.668640,539.489563 601.298096,540.308838 601.927551,541.128113 
	C601.927551,541.128113 601.956360,541.044800 601.994324,541.316040 
	C602.340637,541.805908 602.648987,542.024597 602.957336,542.243225 
	C602.957336,542.243225 602.920349,542.012146 602.893433,542.339050 
	C603.190186,542.885559 603.513794,543.105225 603.837402,543.324829 
	C603.837402,543.324829 603.565247,543.204712 603.652405,543.622864 
	C604.669800,545.451416 605.600037,546.861877 606.921936,548.866089 
	C606.921936,520.412659 606.954407,492.873688 606.895569,465.334930 
	C606.883179,459.539764 606.535767,453.745361 606.446289,447.542725 
	C606.320129,420.433014 606.090332,393.731171 605.944641,366.565430 
	C605.850830,342.551453 605.653931,319.001404 605.533142,295.450989 
	C605.524170,293.703735 606.061707,291.953644 606.345154,290.204895 
	C606.345154,290.204895 606.109070,290.033234 606.499023,290.226440 
	C639.563904,290.455963 672.238892,290.492310 705.065918,290.941772 
	C705.164001,364.275360 705.107117,437.195801 705.069153,510.116241 
	C705.067993,512.436401 705.262024,514.756653 705.308105,517.537415 
	C705.384766,540.825256 705.554993,563.652344 705.644409,586.479736 
	C705.829041,633.632812 705.970642,680.786011 706.129883,727.939148 
	C706.069397,729.828247 706.008850,731.717285 705.515137,734.084045 
	C693.736389,734.748779 682.390808,734.935913 671.045288,735.123047 
	C668.972961,735.071655 666.900696,735.020203 664.165039,735.016602 
	C663.501648,735.064331 663.050903,735.155823 663.050903,735.155823 
z" data-index="7"></path>
<path fill="#763AEB" opacity="1.000000" stroke="none" d="
M705.365112,517.076843 
	C705.262024,514.756653 705.067993,512.436401 705.069153,510.116241 
	C705.107117,437.195801 705.164001,364.275360 705.101257,290.553894 
	C705.015198,289.495056 705.045837,289.237274 705.076477,288.979523 
	C706.049866,291.112030 707.846924,293.236176 707.868835,295.378418 
	C708.080750,316.140076 707.994568,336.904785 707.994080,357.668610 
	C707.993713,372.842987 708.106812,388.018494 707.950562,403.191254 
	C707.861755,411.812653 707.108459,420.427917 707.047668,429.048706 
	C706.906555,449.046753 706.917603,469.047028 707.050720,489.045166 
	C707.099182,496.335266 707.719543,503.620209 707.963379,510.911346 
	C708.023315,512.705200 707.630249,514.514160 706.944580,516.672485 
	C706.084167,517.044739 705.724670,517.060791 705.365112,517.076843 
z" data-index="8"></path>
<path fill="#4900E5" opacity="1.000000" stroke="none" d="
M318.684265,291.370422 
	C318.951416,360.964691 318.988098,430.891113 318.997559,500.817566 
	C319.008057,578.569824 318.993744,656.322083 318.725586,734.559204 
	C318.460968,735.044067 317.991821,735.026367 317.991821,735.026367 
	C317.994324,589.732422 317.994598,444.438446 318.017700,299.144501 
	C318.018097,296.663849 318.294281,294.183258 318.684265,291.370422 
z" data-index="9"></path>
<path fill="#7133EB" opacity="1.000000" stroke="none" d="
M318.091156,735.395752 
	C317.991821,735.026367 318.460968,735.044067 318.695129,735.027710 
	C323.690399,735.194214 328.452209,735.551575 333.212402,735.531128 
	C361.151245,735.411072 389.089752,735.202820 417.490967,734.968262 
	C416.333832,735.936279 414.719238,737.843994 413.093445,737.853577 
	C382.979095,738.031250 352.863281,738.014832 322.748413,737.887329 
	C321.226105,737.880920 319.709656,736.503967 318.091156,735.395752 
z" data-index="10"></path>
<path fill="#5009E7" opacity="1.000000" stroke="none" d="
M705.308105,517.537415 
	C705.724670,517.060791 706.084167,517.044739 706.714355,517.016785 
	C706.993103,536.362915 707.001282,555.720947 707.018921,575.788879 
	C707.028442,576.498718 707.051941,576.979797 707.051941,576.979797 
	C707.029968,625.089844 707.012878,673.199829 706.968384,721.309875 
	C706.966553,723.290283 706.706787,725.270447 706.348572,727.594971 
	C705.970642,680.786011 705.829041,633.632812 705.644409,586.479736 
	C705.554993,563.652344 705.384766,540.825256 705.308105,517.537415 
z" data-index="11"></path>
<path fill="#6725E9" opacity="1.000000" stroke="none" d="
M606.342773,447.950592 
	C606.535767,453.745361 606.883179,459.539764 606.895569,465.334930 
	C606.954407,492.873688 606.921936,520.412659 606.921936,548.866089 
	C605.600037,546.861877 604.669800,545.451416 603.593018,543.759277 
	C604.284485,542.011230 605.858093,540.538574 605.845215,539.079895 
	C605.732666,526.302856 605.179810,513.529785 605.063599,500.752777 
	C604.906311,483.464905 605.019653,466.174591 605.250977,448.417236 
	C605.484985,447.949188 605.913940,447.913269 605.913940,447.913269 
	C605.913940,447.913269 606.342773,447.950592 606.342773,447.950592 
z" data-index="12"></path>
<path fill="#570FE9" opacity="1.000000" stroke="none" d="
M418.340942,685.613770 
	C417.801453,649.632385 417.485626,613.307556 417.222046,576.520508 
	C417.830353,577.331360 418.868561,578.603088 418.872284,579.877808 
	C418.972504,614.361145 418.969025,648.844788 418.961578,683.328369 
	C418.961456,683.975708 418.702698,684.622986 418.340942,685.613770 
z" data-index="13"></path>
<path fill="#6E2DEB" opacity="1.000000" stroke="none" d="
M605.952148,290.305603 
	C606.061707,291.953644 605.524170,293.703735 605.533142,295.450989 
	C605.653931,319.001404 605.850830,342.551453 605.705566,366.550354 
	C605.382385,366.999115 604.903442,366.988983 604.903442,366.988983 
	C604.602295,365.051025 604.045532,363.113922 604.039124,361.174988 
	C603.967590,339.530212 603.940491,317.885040 604.040710,296.240570 
	C604.049744,294.293549 605.029968,292.350983 605.952148,290.305603 
z" data-index="14"></path>
<path fill="#570FE9" opacity="1.000000" stroke="none" d="
M420.143036,289.927734 
	C416.442932,290.263092 412.336975,290.546143 408.231903,290.534210 
	C378.808624,290.448700 349.385529,290.303223 319.507263,290.283020 
	C320.743805,289.927155 322.434448,289.066406 324.127289,289.062134 
	C354.371948,288.986115 384.616882,289.002808 414.861664,289.050079 
	C416.487366,289.052612 418.112305,289.499084 420.143036,289.927734 
z" data-index="15"></path>
<path fill="#570FE9" opacity="1.000000" stroke="none" d="
M704.600220,288.980713 
	C705.045837,289.237274 705.015198,289.495056 704.949219,290.140747 
	C672.238892,290.492310 639.563904,290.455963 606.414062,290.345154 
	C608.146057,289.848358 610.351807,289.064545 612.559814,289.058197 
	C643.081055,288.970276 673.602539,288.989166 704.600220,288.980713 
z" data-index="16"></path>
<path fill="#4900E5" opacity="1.000000" stroke="none" d="
M417.344055,520.590088 
	C417.137329,492.154114 417.137329,463.368195 417.137329,433.878113 
	C418.104462,435.094025 418.584839,435.697968 419.272583,436.608368 
	C418.979126,438.908722 418.051819,440.900665 418.042480,442.896851 
	C417.931152,466.695068 417.965668,490.493927 417.928864,514.292603 
	C417.925781,516.275269 417.682495,518.257629 417.344055,520.590088 
z" data-index="17"></path>
<path fill="#5009E7" opacity="1.000000" stroke="none" d="
M604.929199,367.458252 
	C604.903442,366.988983 605.382385,366.999115 605.621460,367.014221 
	C606.090332,393.731171 606.320129,420.433014 606.446350,447.542725 
	C606.342773,447.950592 605.913940,447.913269 605.913940,447.913269 
	C605.913940,447.913269 605.484985,447.949188 605.270752,447.945282 
	C605.022644,421.270081 604.988770,394.598785 604.929199,367.458252 
z" data-index="18"></path>
<path fill="#570FE9" opacity="1.000000" stroke="none" d="
M627.381165,736.322754 
	C637.702454,735.767517 648.365784,735.439270 659.490540,735.161743 
	C659.018555,735.772949 658.085510,736.818604 657.151733,736.819153 
	C647.342285,736.825378 637.532715,736.664551 627.381165,736.322754 
z" data-index="19"></path>
<path fill="#570FE9" opacity="1.000000" stroke="none" d="
M671.391357,735.341064 
	C682.390808,734.935913 693.736389,734.748779 705.552612,734.484131 
	C705.032959,734.927063 704.041626,735.900391 703.052551,735.898193 
	C692.613953,735.874573 682.175781,735.695374 671.391357,735.341064 
z" data-index="20"></path>
<path fill="#6725E9" opacity="1.000000" stroke="none" d="
M601.923584,540.773804 
	C601.298096,540.308838 600.668640,539.489563 599.955078,538.368530 
	C600.553894,538.851013 601.236816,539.635254 601.923584,540.773804 
z" data-index="21"></path>
<path fill="#6725E9" opacity="1.000000" stroke="none" d="
M599.914368,537.772156 
	C599.264954,537.274048 598.609253,536.407593 597.836548,535.230835 
	C598.449097,535.748230 599.178589,536.576050 599.914368,537.772156 
z" data-index="22"></path>
<path fill="#7133EB" opacity="1.000000" stroke="none" d="
M418.169189,734.903198 
	C417.945374,734.521057 417.974426,734.086060 418.057251,733.328125 
	C418.214691,733.620300 418.318390,734.235352 418.169189,734.903198 
z" data-index="23"></path>
<path fill="#6725E9" opacity="1.000000" stroke="none" d="
M602.806152,542.013672 
	C602.648987,542.024597 602.340637,541.805908 601.952209,541.302979 
	C602.133118,541.273804 602.394043,541.528992 602.806152,542.013672 
z" data-index="24"></path>
<path fill="#6725E9" opacity="1.000000" stroke="none" d="
M603.688110,543.078491 
	C603.513794,543.105225 603.190186,542.885559 602.778137,542.358765 
	C602.972778,542.311768 603.255859,542.571960 603.688110,543.078491 
z" data-index="25"></path>
<path fill="#763AEB" opacity="1.000000" stroke="none" d="
M707.144226,576.872437 
	C707.051941,576.979797 707.028442,576.498718 707.037720,576.258301 
	C707.291382,576.229431 707.354492,576.478455 707.144226,576.872437 
z" data-index="26"></path>
<path fill="#6725E9" opacity="1.000000" stroke="none" d="
M418.192047,695.871948 
	C418.097229,695.980835 418.008911,695.499939 418.052429,695.259338 
	C418.358002,695.233765 418.421631,695.481873 418.192047,695.871948 
z" data-index="27"></path>
<path fill="#570FE9" opacity="1.000000" stroke="none" d="
M663.162354,735.223206 
	C663.050903,735.155823 663.501648,735.064331 663.728271,735.103516 
	C663.954895,735.142639 663.623718,735.339172 663.623718,735.339172 
	C663.623718,735.339172 663.273865,735.290588 663.162354,735.223206 
z" data-index="28"></path>
</svg>